<svg width="16" height="16" viewBox="0 0 16 16" fill="none" xmlns="http://www.w3.org/2000/svg">
    <rect width="16" height="16" rx="2" fill="#FF0084"/>
    <path d="M2 6.6176C2.07531 6.47134 2.23497 6.33743 2.34872 6.21415C2.6002 5.94161 2.85847 5.63697 3.17656 5.41864C3.74474 5.02865 4.5666 4.99156 5.25861 5.00128C5.99817 5.01166 6.609 5.48392 7.18242 5.82841C7.5267 6.03524 7.8982 6.1979 8.27399 6.35707C8.63511 6.51002 8.98398 6.66379 9.38169 6.73143C10.7231 6.95956 12.0334 6.6017 13.1121 5.90682C13.442 5.69433 13.6504 5.36447 14 5.1834" stroke="white" stroke-width="2" stroke-linecap="round"/>
    <path d="M2 11.6176C2.07531 11.4713 2.23497 11.3374 2.34872 11.2142C2.6002 10.9416 2.85847 10.637 3.17656 10.4186C3.74474 10.0286 4.5666 9.99156 5.25861 10.0013C5.99817 10.0117 6.609 10.4839 7.18242 10.8284C7.5267 11.0352 7.8982 11.1979 8.27399 11.3571C8.63511 11.51 8.98398 11.6638 9.38169 11.7314C10.7231 11.9596 12.0334 11.6017 13.1121 10.9068C13.442 10.6943 13.6504 10.3645 14 10.1834" stroke="white" stroke-width="2" stroke-linecap="round"/>
</svg>
