<svg width="40" height="40" viewBox="0 0 40 40" fill="none" xmlns="http://www.w3.org/2000/svg">
    <rect x="2" y="2" width="36" height="36" rx="4" fill="#FF0084"/>
    <path d="M6 16.044C6.17572 15.6784 6.54826 15.3436 6.81368 15.0354C7.40046 14.354 8.0031 13.5924 8.7453 13.0466C10.0711 12.0716 11.9887 11.9789 13.6034 12.0032C15.3291 12.0291 16.7543 13.2098 18.0923 14.071C18.8956 14.5881 19.7625 14.9948 20.6393 15.3927C21.4819 15.775 22.2959 16.1595 23.2239 16.3286C26.3539 16.8989 29.4112 16.0042 31.9282 14.2671C32.6979 13.7358 33.1842 12.9112 34 12.4585" stroke="white" stroke-width="5" stroke-linecap="round"/>
    <path d="M6 29.044C6.17572 28.6784 6.54826 28.3436 6.81368 28.0354C7.40046 27.354 8.0031 26.5924 8.7453 26.0466C10.0711 25.0716 11.9887 24.9789 13.6034 25.0032C15.3291 25.0291 16.7543 26.2098 18.0923 27.071C18.8956 27.5881 19.7625 27.9948 20.6393 28.3927C21.4819 28.775 22.2959 29.1595 23.2239 29.3286C26.3539 29.8989 29.4112 29.0042 31.9282 27.2671C32.6979 26.7358 33.1842 25.9112 34 25.4585" stroke="white" stroke-width="5" stroke-linecap="round"/>
</svg>
